<?xml version="1.0" encoding="iso-8859-1"?>
<!-- Generator: Adobe Illustrator 19.0.0, SVG Export Plug-In . SVG Version: 6.00 Build 0)  -->
<svg fill="rgb(0, 0, 0)" version="1.1" id="Layer_1" xmlns="http://www.w3.org/2000/svg" xmlns:xlink="http://www.w3.org/1999/xlink" x="0px" y="0px"
	 viewBox="0 0 280.112 280.112" style="enable-background:new 0 0 280.112 280.112;" xml:space="preserve">
<g>
	<g>
		<g>
			<path d="M233.208,137.468c26.716-6.584,45.38-30.392,45.38-57.888c0-32.908-26.772-59.68-59.68-59.68
				c-9.384,0-18.66,2.248-27.052,6.54C180.82,10.04,162.184,0,142.356,0C118.988,0,98.272,13.284,88.44,34.188
				c-8.448-4.352-17.772-6.636-27.232-6.636c-32.908,0-59.684,26.776-59.684,59.684c0,26.496,17.328,49.564,42.492,57.096
				c0,0-0.964,116.112-0.964,117.436c0,17.828,86.556,18.344,96.424,18.344c9.868,0,96.424-0.52,96.424-18.344
				c0-0.436,0.188-1.62,0.188-1.62v-92.372c0-2.1-1.7-3.796-3.8-3.796c-2.1,0-3.796,1.7-3.796,3.796v69.108
				c-8.304,4.32-38.34,9.992-87.844,9.992c-52.296,0-82.852-6.328-89.036-10.476v-94.968l-2.888-3.688
				c-23.32-5.74-39.604-26.512-39.604-50.508c0-28.72,23.364-52.084,52.084-52.084c9.508,0,18.868,2.648,27.08,7.656l5.52-1.872
				C101.628,20.684,120.684,7.6,142.352,7.6c18.372,0,35.58,9.888,44.916,25.812l5.208,1.348c8.04-4.752,17.18-7.264,26.428-7.264
				c28.72,0,52.084,23.364,52.084,52.084c0,23.996-16.284,44.772-39.604,50.512c-2.036,0.5-3.276,2.56-2.776,4.6
				C229.112,136.728,231.168,137.964,233.208,137.468z M51.616,242.004c20.944,10.048,85.776,10.192,89.04,10.192
				c3.208,0,65.756-0.14,87.844-9.66v17.612c0,0-0.096,1.104-0.06,1.048c-2.972,4.632-36.364,11.324-88.956,11.324
				c-50.864,0-83.768-6.256-88.568-10.856L51.616,242.004z"/>
			<path d="M245.352,89.452c0,1.468,1.188,2.66,2.66,2.66c1.468,0,2.66-1.188,2.66-2.66c0-21.656-17.624-39.28-39.28-39.28
				c-1.468,0-2.66,1.188-2.66,2.656c0,1.472,1.188,2.66,2.66,2.66C230.116,55.488,245.352,70.724,245.352,89.452z"/>
			<path d="M33.7,80.108c-1.96,5.084-2.964,10.456-2.964,15.964c0,1.468,1.188,2.66,2.66,2.66s2.66-1.188,2.66-2.66
				c0-4.852,0.876-9.576,2.608-14.052c0.528-1.368-0.152-2.908-1.524-3.436C35.776,78.056,34.228,78.732,33.7,80.108z"/>
			<path d="M99.044,61.888c0.768-1.252,0.372-2.888-0.88-3.652c-15.888-9.724-37.3-8.064-51.46,3.756
				c-1.132,0.94-1.284,2.616-0.34,3.74c0.524,0.632,1.284,0.956,2.04,0.956c0.6,0,1.204-0.204,1.7-0.616
				c12.464-10.396,31.28-11.872,45.288-3.304C96.644,63.536,98.28,63.144,99.044,61.888z"/>
			<path d="M148.176,25.348c0-1.468-1.188-2.66-2.66-2.66c-13.844,0-26.636,6.304-35.112,17.304c-0.9,1.164-0.68,2.832,0.48,3.728
				c0.48,0.376,1.052,0.556,1.624,0.556c0.796,0,1.58-0.356,2.104-1.036c7.46-9.68,18.72-15.232,30.904-15.232
				C146.988,28.008,148.176,26.82,148.176,25.348z"/>
			<path d="M72.988,175.648c-1.472,0-2.66,1.188-2.66,2.66v45.884c0,1.468,1.188,2.66,2.66,2.66c1.468,0,2.66-1.188,2.66-2.66
				v-45.884C75.648,176.836,74.46,175.648,72.988,175.648z"/>
			<path d="M75.648,148.072c0-1.468-1.188-2.66-2.66-2.66c-1.468,0-2.66,1.188-2.66,2.66v19.156c0,1.468,1.188,2.656,2.66,2.656
				c1.472,0,2.66-1.188,2.66-2.656V148.072z"/>
			<path d="M115.28,230.108h0.028c1.464-0.016,2.648-1.212,2.632-2.684l-0.248-27.04c-0.016-1.46-1.204-2.632-2.656-2.632h-0.028
				c-1.464,0.016-2.648,1.216-2.632,2.684l0.244,27.04C112.636,228.936,113.824,230.108,115.28,230.108z"/>
			<path d="M117.608,190.864l-0.376-42.38c-0.016-1.46-1.196-2.632-2.66-2.632h-0.028c-1.464,0.016-2.64,1.212-2.632,2.684
				l0.376,42.376c0.016,1.46,1.196,2.632,2.66,2.632h0.028v0.004C116.44,193.532,117.62,192.336,117.608,190.864z"/>
			<path d="M156.156,226.496c1.468,0,2.66-1.188,2.66-2.656v-33.812c-0.004-1.472-1.192-2.66-2.66-2.66
				c-1.468,0-2.66,1.188-2.66,2.66v33.812C153.496,225.308,154.684,226.496,156.156,226.496z"/>
			<path d="M156.152,182.96c1.472,0,2.66-1.188,2.66-2.66v-31.876c0-1.468-1.188-2.66-2.66-2.66c-1.468,0-2.66,1.188-2.66,2.66
				V180.3C153.492,181.768,154.68,182.96,156.152,182.96z"/>
			<path d="M197.736,173.852c-1.468,0-2.66,1.188-2.66,2.66v45.912c0,1.472,1.188,2.66,2.66,2.66c1.472,0,2.66-1.188,2.66-2.66
				v-45.912C200.396,175.04,199.208,173.852,197.736,173.852z"/>
			<path d="M200.396,149.836c0-1.468-1.188-2.66-2.66-2.66c-1.468,0-2.66,1.188-2.66,2.66v17.676c0,1.472,1.188,2.66,2.66,2.66
				c1.472,0,2.66-1.188,2.66-2.66V149.836z"/>
		</g>
	</g>
</g>
<g>
</g>
<g>
</g>
<g>
</g>
<g>
</g>
<g>
</g>
<g>
</g>
<g>
</g>
<g>
</g>
<g>
</g>
<g>
</g>
<g>
</g>
<g>
</g>
<g>
</g>
<g>
</g>
<g>
</g>
</svg>
